<svg id="a8eed3f0-e599-4c22-bdc6-e39a26115fbe" data-name="Calque 1" xmlns="http://www.w3.org/2000/svg" viewBox="0 0 563.22412 563.22217">
  <defs>
    <style>
      .b0a1ce0a-2942-4cbb-a4e1-cb7dac2213c7, .b4ec6bdb-164e-4b1f-832f-4800679530dc {
        fill: #1d1d1b;
      }

      .b0a1ce0a-2942-4cbb-a4e1-cb7dac2213c7 {
        stroke: #fff;
        stroke-width: 8px;
      }

      .a6287135-01aa-4fd9-88d4-d0c6aaf70501, .b0a1ce0a-2942-4cbb-a4e1-cb7dac2213c7 {
        stroke-miterlimit: 10;
      }

      .a6287135-01aa-4fd9-88d4-d0c6aaf70501, .a748a9fd-6c02-4fbe-abb8-cb133745cf38, .ae5abb5c-6160-46d5-aeb0-ad9305839746 {
        fill: #fff;
      }

      .a6287135-01aa-4fd9-88d4-d0c6aaf70501 {
        stroke: #1d1d1b;
        stroke-width: 6px;
      }

      .ac02cdba-747e-4586-860a-97aeac347427 {
        opacity: 0.93;
      }

      .ae5abb5c-6160-46d5-aeb0-ad9305839746, .b4ec6bdb-164e-4b1f-832f-4800679530dc {
        font-size: 58px;
        font-family: Impact;
      }

      .a3f51e59-4ea7-4d34-8387-abf2cf5987d7 {
        letter-spacing: 0.00359em;
      }

      .eb700fa3-021f-49db-bb23-0a7dcaaa8d51 {
        letter-spacing: 0.44442em;
      }

      .a748a9fd-6c02-4fbe-abb8-cb133745cf38 {
        font-size: 69px;
        font-family: Cambria-Bold, Cambria;
        font-weight: 700;
      }
    </style>
  </defs>
  <title>ACME</title>
  <circle class="b0a1ce0a-2942-4cbb-a4e1-cb7dac2213c7" cx="281.60553" cy="281.61485" r="249.36277"/>
  <circle class="a6287135-01aa-4fd9-88d4-d0c6aaf70501" cx="281.97079" cy="281.71389" r="171.05263"/>
  <g class="ac02cdba-747e-4586-860a-97aeac347427">
    <path d="M402.3363,138.65723c-2.01839,1.17677-3.50939,2.05663-5.01017,2.91948-27.51049,15.81681-36.837,43.648-25.064,74.23627a19.93326,19.93326,0,0,1,1.10866,8.66458c-1.90087,21.05059,7.51119,36.52151,23.79629,48.51666,2.69245,1.98319,3.98443,3.81811,4.29087,7.22539a36.85938,36.85938,0,0,0,9.10759,21.28417c4.50086-17.89936,11.9749-35.34034-4.26777-51.39513.95245-.23306,1.64683-.655,2.1327-.48408,7.35769,2.588,15.88716,1.2562,22.3201,7.28134,2.02351,1.89524,5.64384,2.0856,8.79707,3.14488l-3.7635,3.3767,5.4632,2.10727-6.52386,2.47908,4.96684,1.977c-3.44078,4.19422-6.96517,1.44152-11.34872-.04548,2.19278,10.51473,4.24169,20.33954,6.29059,30.16435l1.6072.55984c2.23917-6.20108,5.12556-12.26459,6.48341-18.653.86359-4.063,1.89128-6.82824,5.39462-9.47343,16.29984-12.30719,25.57534-28.07135,22.8787-49.37714-.31317-2.47448.54747-5.2517,1.409-7.6965,7.45114-21.14551,7.97017-41.64434-7.76868-59.38188-6.383-7.19361-14.83353-12.5527-22.15266-18.58934,5.86037,2.04886,12.48328,3.99474,18.78729,6.68722,4.89156,2.08922,9.24157,5.42037,14.08141,7.66147,16.41974,7.60319,19.32667,21.34461,17.34424,37.36861-.93787,7.58075-2.09559,15.1343-3.244,23.34556,7.10225-11.71788,9.10534-24.12411,9.30316-38.09913a39.20806,39.20806,0,0,1,3.17036,3.6187,69.84856,69.84856,0,0,1,4.41846,7.3277c12.38609,25.32628,12.02857,22.43478-1.54638,48.15963-3.75853,7.12243-9.46127,13.2189-14.60063,20.23471,13.51684-5.77722,20.77386-16.75679,27.35282-28.62442,1.05692,11.08643-.33937,21.75687-2.49715,32.59024-2.78444,13.97969-11.054,21.65134-24.1205,25.354-4.09212,1.15957-8.1039,2.6027-12.15245,3.916l.25081,1.5545,24.10173-4.31116c-13.24964,19.71326-31.03687,33.77753-54.00047,40.21946l15.84176-14.2745-.76022-.50341c-7.261,3.53482-14.5866,6.94411-21.76583,10.63786-8.05179,4.14269-8.92936,6.00149-5.55,14.28032,2.95575,7.241,6.83453,14.10064,9.98075,21.27127a15.88138,15.88138,0,0,1,1.15309,7.33582c-.3401,4.39857-1.3024,8.749-2.241,14.58716L437.47133,357.834l-1.32737.47452c2.35068,7.21066,4.49645,14.49812,7.15537,21.59326a7.57027,7.57027,0,0,1-.48086,7.2223c-3.61932,6.87035-6.44168,14.16252-9.52991,21.30879-.53466,1.23725-.80779,2.58751-1.58223,5.13937l-2.1864-42.53892-.32985.13562q-3.15149,45.35793-6.32968,90.714c-.01828.25966-.43985.49095-1.55712,1.66209-1.86383-30.85456-3.67443-60.8282-5.485-90.80182l-.763-.05893c-.68993,12.95493-1.37986,25.90985-1.97538,37.09222-3.78133-7.44781-8.29582-16.0754-12.47193-24.86377-.59336-1.24871.26431-3.34086.78-4.93607,2.27468-7.036,4.67007-14.0329,7.02173-21.044l-1.43057-.49118-8.0628,19.17087c-1.1777-6.52847-2.29676-11.83253-2.98784-17.19176-.17392-1.34881.95968-2.90311,1.60037-4.314,3.74981-8.25733,7.48584-16.52154,11.32294-24.73841,1.79864-3.85164.42627-6.556-2.82351-8.61659-2.25458-1.42954-4.58879-2.75095-6.96709-3.96452-6.39-3.26063-12.82274-6.43747-19.94626-9.24112l16.27937,14.9524c-22.55013-6.30172-40.50379-20.27794-54.00353-40.33409q12.26511,2.33807,24.53319,4.67408l.40815-1.60686c-3.23082-1.04032-6.47305-2.04666-9.6906-3.12652-19.7648-6.63334-23.89557-10.77511-28.04652-31.11639-1.83966-9.0151-2.07657-18.35728-2.24554-27.92549,7.31594,11.19418,13.85941,22.76176,28.51413,28.65121-2.35622-2.91135-3.705-4.65755-5.13623-6.33324a97.90583,97.90583,0,0,1-19.06384-33.2305,18.03737,18.03737,0,0,1-.36288-9.73578c2.86309-10.70128,8.06345-20.33418,14.17314-28.96468,2.808,12.28268,5.59346,24.46638,8.37887,36.65008l2.25023-.42947q-.63051-4.1226-1.26036-8.24532c-.45545-3.00062-1.26843-5.99938-1.29045-9.00361-.06654-9.07944.08125-18.16439.39513-27.23855a6.74559,6.74559,0,0,1,2.21692-4.055c12.86516-12.08412,27.74-20.57987,44.97457-24.74378A8.58922,8.58922,0,0,1,402.3363,138.65723Z" transform="translate(-139.33936 -16.02295)"/>
  </g>
  <text class="b4ec6bdb-164e-4b1f-832f-4800679530dc" transform="translate(180.7135 389.34537)">AC<tspan class="a3f51e59-4ea7-4d34-8387-abf2cf5987d7" x="61.56836" y="0">	</tspan><tspan class="eb700fa3-021f-49db-bb23-0a7dcaaa8d51" x="72" y="0" xml:space="preserve">		</tspan><tspan x="144" y="0">ME</tspan></text>
  <text class="a748a9fd-6c02-4fbe-abb8-cb133745cf38" transform="translate(247.34043 92.44213)">֎</text>
  <text class="a748a9fd-6c02-4fbe-abb8-cb133745cf38" transform="translate(313.80895 95.02342) rotate(12.10314)">	</text>
  <text class="a748a9fd-6c02-4fbe-abb8-cb133745cf38" transform="translate(316.58085 95.52309) rotate(12.96158)"> </text>
  <text class="a748a9fd-6c02-4fbe-abb8-cb133745cf38" transform="matrix(0.95461, 0.29787, -0.29787, 0.95461, 330.57018, 98.70985)">	</text>
  <text class="a748a9fd-6c02-4fbe-abb8-cb133745cf38" transform="matrix(0.91858, 0.39524, -0.39524, 0.91858, 349.22828, 104.77351)"> </text>
  <text class="a748a9fd-6c02-4fbe-abb8-cb133745cf38" transform="translate(362.4164 110.41391) rotate(27.61404)"> </text>
  <text class="a748a9fd-6c02-4fbe-abb8-cb133745cf38" transform="translate(375.14559 117.03645) rotate(31.93823)"> </text>
  <text class="ae5abb5c-6160-46d5-aeb0-ad9305839746" transform="matrix(0.78083, 0.62475, -0.62475, 0.78083, 387.2429, 123.89815)">H</text>
  <text class="ae5abb5c-6160-46d5-aeb0-ad9305839746" transform="matrix(0.676, 0.7369, -0.7369, 0.676, 411.09623, 142.94188)">o</text>
  <text class="ae5abb5c-6160-46d5-aeb0-ad9305839746" transform="translate(430.14413 163.483) rotate(56.05007)">n</text>
  <text class="ae5abb5c-6160-46d5-aeb0-ad9305839746" transform="translate(446.23683 187.20529) rotate(64.67181)">o</text>
  <text class="ae5abb5c-6160-46d5-aeb0-ad9305839746" transform="translate(458.1422 212.80862) rotate(71.91595)">r</text>
  <text class="ae5abb5c-6160-46d5-aeb0-ad9305839746" transform="matrix(0.18933, 0.98191, -0.98191, 0.18933, 464.50196, 231.12573)">e</text>
  <text class="ae5abb5c-6160-46d5-aeb0-ad9305839746" transform="translate(469.66625 258.88986) rotate(86.18506)">r</text>
  <text class="ae5abb5c-6160-46d5-aeb0-ad9305839746" transform="translate(470.82179 278.73924) rotate(90.60795)">	</text>
  <text class="ae5abb5c-6160-46d5-aeb0-ad9305839746" transform="translate(470.60394 291.3949) rotate(94.46146)">	</text>
  <text class="ae5abb5c-6160-46d5-aeb0-ad9305839746" transform="matrix(-0.25572, 0.96675, -0.96675, -0.25572, 465.84064, 324.95803)"> </text>
  <text class="ae5abb5c-6160-46d5-aeb0-ad9305839746" transform="translate(463.38382 334.29544) rotate(107.7547)"> </text>
  <text class="ae5abb5c-6160-46d5-aeb0-ad9305839746" transform="translate(460.46483 343.46362) rotate(110.67567)"> </text>
  <text class="a748a9fd-6c02-4fbe-abb8-cb133745cf38" transform="matrix(-0.52948, 0.84832, -0.84832, -0.52948, 460.37495, 352.42581)">֎</text>
  <text class="ae5abb5c-6160-46d5-aeb0-ad9305839746" transform="translate(422.83814 407.53919) rotate(133.2288)"> </text>
  <text class="ae5abb5c-6160-46d5-aeb0-ad9305839746" transform="translate(416.2525 414.56698) rotate(136.13488)"> </text>
  <text class="ae5abb5c-6160-46d5-aeb0-ad9305839746" transform="matrix(-0.7553, 0.65538, -0.65538, -0.7553, 409.30871, 421.26209)">	</text>
  <text class="ae5abb5c-6160-46d5-aeb0-ad9305839746" transform="translate(391.835 435.45543) rotate(145.88671)"> </text>
  <text class="ae5abb5c-6160-46d5-aeb0-ad9305839746" transform="matrix(-0.85561, 0.51762, -0.51762, -0.85561, 383.84973, 440.88153)"> </text>
  <text class="ae5abb5c-6160-46d5-aeb0-ad9305839746" transform="matrix(-0.88104, 0.47303, -0.47303, -0.88104, 375.60699, 445.88515)"> </text>
  <text class="ae5abb5c-6160-46d5-aeb0-ad9305839746" transform="translate(367.1205 450.45923) rotate(154.71111)"> </text>
  <text class="ae5abb5c-6160-46d5-aeb0-ad9305839746" transform="translate(358.40724 454.59223) rotate(157.65322)"> </text>
  <text class="ae5abb5c-6160-46d5-aeb0-ad9305839746" transform="matrix(-0.95842, 0.28534, -0.28534, -0.95842, 350.18375, 458.56995)">S</text>
  <text class="ae5abb5c-6160-46d5-aeb0-ad9305839746" transform="translate(323.14148 466.80132) rotate(172.08388)">e</text>
  <text class="ae5abb5c-6160-46d5-aeb0-ad9305839746" transform="translate(295.01772 470.57863) rotate(179.00909)">r</text>
  <text class="ae5abb5c-6160-46d5-aeb0-ad9305839746" transform="matrix(-0.99467, -0.10311, 0.10311, -0.99467, 274.57802, 471.09072)">v</text>
  <text class="ae5abb5c-6160-46d5-aeb0-ad9305839746" transform="translate(250.55971 468.41494) rotate(-168.15055)">i</text>
  <text class="ae5abb5c-6160-46d5-aeb0-ad9305839746" transform="translate(235.95766 465.51427) rotate(-162.87807)">r</text>
  <text class="ae5abb5c-6160-46d5-aeb0-ad9305839746" transform="translate(217.03051 459.5063) rotate(-158.44735)"> </text>
  <text class="ae5abb5c-6160-46d5-aeb0-ad9305839746" transform="matrix(-0.91013, -0.41432, 0.41432, -0.91013, 208.04158, 455.97038)">	</text>
  <text class="ae5abb5c-6160-46d5-aeb0-ad9305839746" transform="matrix(-0.88566, -0.46434, 0.46434, -0.88566, 198.43115, 451.58436)">	</text>
  <text class="ae5abb5c-6160-46d5-aeb0-ad9305839746" transform="translate(169.40606 433.97346) rotate(-142.09398)"> </text>
  <text class="ae5abb5c-6160-46d5-aeb0-ad9305839746" transform="translate(161.7836 428.05654) rotate(-139.18882)"> </text>
  <text class="ae5abb5c-6160-46d5-aeb0-ad9305839746" transform="translate(154.47886 421.768) rotate(-136.28416)"> </text>
  <text class="a748a9fd-6c02-4fbe-abb8-cb133745cf38" transform="translate(146.25463 418.18918) rotate(-124.96425)">֎</text>
  <text class="a748a9fd-6c02-4fbe-abb8-cb133745cf38" transform="translate(110.2828 362.24525) rotate(-112.8601)"> </text>
  <text class="a748a9fd-6c02-4fbe-abb8-cb133745cf38" transform="matrix(-0.3173, -0.94832, 0.94832, -0.3173, 104.68833, 349.05899)"> </text>
  <text class="a748a9fd-6c02-4fbe-abb8-cb133745cf38" transform="translate(100.10528 335.46233) rotate(-104.15749)">	</text>
  <text class="ae5abb5c-6160-46d5-aeb0-ad9305839746" transform="translate(96.87487 322.58421) rotate(-100.91902)"> </text>
  <text class="ae5abb5c-6160-46d5-aeb0-ad9305839746" transform="translate(95.03214 313.19041) rotate(-97.91584)">	</text>
  <text class="ae5abb5c-6160-46d5-aeb0-ad9305839746" transform="translate(92.04498 289.45535) rotate(-88.03189)">P</text>
  <text class="ae5abb5c-6160-46d5-aeb0-ad9305839746" transform="translate(93.17007 261.76264) rotate(-80.85765)">r</text>
  <text class="ae5abb5c-6160-46d5-aeb0-ad9305839746" transform="translate(95.88589 242.57145) rotate(-73.60865)">o</text>
  <text class="ae5abb5c-6160-46d5-aeb0-ad9305839746" transform="translate(104.13707 215.49696) rotate(-66.838)">t</text>
  <text class="ae5abb5c-6160-46d5-aeb0-ad9305839746" transform="matrix(0.49858, -0.86684, 0.86684, 0.49858, 110.19017, 200.26106)">é</text>
  <text class="ae5abb5c-6160-46d5-aeb0-ad9305839746" transform="translate(124.04525 175.89967) rotate(-51.60833)">g</text>
  <text class="ae5abb5c-6160-46d5-aeb0-ad9305839746" transform="matrix(0.73001, -0.68344, 0.68344, 0.73001, 141.6254, 153.53963)">e</text>
  <text class="ae5abb5c-6160-46d5-aeb0-ad9305839746" transform="matrix(0.80992, -0.58654, 0.58654, 0.80992, 162.35845, 134.38823)">r</text>
</svg>
